<svg width="128" height="99" viewBox="0 0 128 99" fill="none" xmlns="http://www.w3.org/2000/svg">
<path d="M105.445 12.8368L99.2593 20.1634L96.9672 18.3867L102.52 10.57L105.445 12.8368ZM95.016 23.3523C94.5418 22.9847 94.2581 22.5455 94.1649 22.0346C94.0904 21.5214 94.2124 21.0593 94.531 20.6483C94.8577 20.2267 95.2789 19.9881 95.7945 19.9323C96.3207 19.8846 96.8209 20.0446 97.2951 20.4122C97.7588 20.7716 98.0278 21.2079 98.1024 21.7212C98.1874 22.2426 98.0666 22.7141 97.7398 23.1356C97.4213 23.5466 96.9989 23.7759 96.4727 23.8235C95.9653 23.8688 95.4797 23.7117 95.016 23.3523ZM111.271 17.3532L105.086 24.6798L102.794 22.9031L108.347 15.0864L111.271 17.3532ZM100.843 27.8687C100.368 27.5012 100.085 27.0619 99.9915 26.551C99.9169 26.0378 100.039 25.5757 100.358 25.1647C100.684 24.7432 101.105 24.5045 101.621 24.4487C102.147 24.401 102.647 24.561 103.122 24.9286C103.585 25.288 103.854 25.7243 103.929 26.2376C104.014 26.759 103.893 27.2305 103.566 27.652C103.248 28.063 102.825 28.2923 102.299 28.34C101.792 28.3852 101.306 28.2282 100.843 27.8687ZM119.787 20.2745L112.364 29.0665L109.614 26.9345L116.277 17.5544L119.787 20.2745ZM107.272 32.8932C106.703 32.4521 106.363 31.925 106.251 31.312C106.162 30.6961 106.308 30.1415 106.69 29.6483C107.082 29.1425 107.588 28.8561 108.207 28.7891C108.838 28.732 109.438 28.9239 110.007 29.365C110.564 29.7963 110.887 30.3199 110.976 30.9358C111.078 31.5615 110.933 32.1273 110.541 32.6331C110.159 33.1263 109.652 33.4015 109.02 33.4587C108.411 33.513 107.829 33.3245 107.272 32.8932Z" fill="black"/>
<line x1="13.8538" y1="23.3795" x2="26.8538" y2="32.3795" stroke="black" stroke-width="3"/>
<path d="M1 81.5576L15.3521 73.8238" stroke="black" stroke-width="3"/>
<path d="M34.0742 81.9001V75.3908L43.763 73.9834L42.7491 81.9001L41.0592 83.5714L38.6933 95.0945H35.3135L34.0742 94.039L35.3135 83.9232L34.0742 81.9001Z" fill="#E5C080"/>
<path fill-rule="evenodd" clip-rule="evenodd" d="M44.9741 73.1035L43.8855 82.2046L42.2716 83.9137L39.9591 95.9739H35.7259L34.0742 94.4675L35.2589 84.1128L34.1046 82.095V74.7942L44.9741 73.1035ZM35.7095 75.9094V81.7906L36.899 83.8699L35.7399 94.0009L36.432 94.6321H38.591L40.753 83.3564L42.3352 81.681L43.1643 74.7498L35.7095 75.9094Z" fill="black"/>
<path fill-rule="evenodd" clip-rule="evenodd" d="M77.6758 75.1228L75.5445 84.4755L74.1456 85.6792V95.8844L72.882 96.6609H69.0915L68.1036 86.2714L66.9446 83.733V76.6973H68.5153V83.4771L69.6502 85.9626L70.539 95.3094H72.3787L72.5749 95.1889V85.1194L74.0953 83.8112L76.1345 74.8628L77.6758 75.1228ZM48.6094 77.1879L50.1499 76.9244L53.561 91.6884L54.8097 93.3358H56.1013V90.5857L54.0664 82.5686L56.1013 79.9884V78.043L57.6681 77.9758L58.5811 85.8318L59.4304 86.6538L59.9565 96.1612L60.5498 97.1254L62.079 96.9149L62.8784 93.9346V86.7521L64.1424 84.7581L64.6525 77.9992L66.2199 78.0868L65.6873 85.1434L64.4491 87.0967V94.0885L63.3717 98.1056L59.6877 98.6128L58.4043 96.5269L57.8878 87.1949L57.0689 86.4022L56.5387 81.8406L55.7448 82.8473L57.672 90.4399V94.6873H53.9589L52.0796 92.208L48.6094 77.1879Z" fill="black"/>
<path d="M48.6094 77.7257L52.0913 92.0412L53.674 94.0247H56.2063V90.6614L54.2015 83.1587L56.2063 80.744V78.6743L57.1559 86.4357L58 87.2119L58.5276 96.2669L59.4772 97.7329L62.115 97.388L63.0646 94.0247V87.2119L64.3308 85.3146L64.8583 78.6743L67.1796 77.3807V84.0211L68.3402 86.4357L69.2899 95.9219H72.1387L72.8773 95.4907V85.7458L74.3545 84.5385L76.4647 75.7422L48.6094 77.7257Z" fill="#E5C080"/>
<path fill-rule="evenodd" clip-rule="evenodd" d="M77.6758 74.8628L75.3731 84.8358L73.9919 86.0088V95.9539L72.7443 96.7107H69.0016L68.0262 86.5859L66.8819 84.1123V78.5018L66.1418 78.9304L65.6404 85.4866L64.4178 87.3902V94.2038L63.354 98.1186L59.7166 98.6128L58.4493 96.58L57.9394 87.4859L57.1308 86.7134L56.6073 82.2681L55.8234 83.2491L57.7262 90.6482V94.7873H54.06L52.2045 92.3712L48.6094 77.0133L77.6758 74.8628ZM56.1754 80.4631V78.5672L57.7224 78.5017L58.6239 86.1575L59.4624 86.9586L59.982 96.2237L60.5678 97.1633L62.0777 96.9582L62.8669 94.0538V87.0543L64.115 85.1112L64.6432 78.2041L66.7322 76.9945L50.4679 78.1978L53.6672 91.8649L54.9001 93.4703H56.1754V90.7903L54.1662 82.9775L56.1754 80.4631ZM68.4327 76.8687V83.8628L69.5532 86.285L70.4308 95.3936H72.2473L72.441 95.2761V85.4633L73.9422 84.1884L75.7574 76.3268L68.4327 76.8687Z" fill="black"/>
<path fill-rule="evenodd" clip-rule="evenodd" d="M43.763 75.8913L42.9655 82.3934L41.4119 83.9537L39.371 95.9737H35.6289L34.0742 94.6843L35.1568 84.1798L34.1054 82.7645V75.8167H35.5747V82.3531L36.669 83.8261L35.6058 94.143L36.1969 94.6332H38.1118L40.0274 83.3505L41.5582 81.8132L42.3028 75.7422L43.763 75.8913Z" fill="black"/>
<path d="M30.6001 48.7839L38.021 52.2386C38.021 52.2386 41.6399 50.8066 44.102 50.2898C45.2162 50.056 46.9879 49.8218 46.9879 49.8218L53.3781 49.2017L61.8297 49.404V45.2406L60.9021 45.8606V39.5712H60.0776L59.4591 34.1676L58.6346 26.2837L60.9021 18.577L57.2947 13.6163L56.5732 9.36427L57.9131 4.84652L59.4591 6.61819L60.9021 9.85148L62.345 13.0848H64.9217L66.88 9.71861L67.3954 11.8446L69.6629 9.36427L70.0751 10.5159L73.6825 9.36427L73.0641 11.2245L75.5377 10.5159V11.2245H78.8359L80.2789 4.49219L84.0924 9.00994L80.2789 14.5021L84.0924 18.577H81.9279C84.208 21.7692 86.1537 23.2719 85.1231 24.7778C84.0924 26.2837 81.9279 27.8782 81.9279 27.8782V30.89C81.9279 30.89 81.9279 31.1558 82.7809 36.648C83.6339 42.1401 90.5856 55.6048 88.0089 61.0084C85.4323 66.412 85.7415 64.9061 83.7832 67.9179C81.8249 70.9297 81.6606 71.7001 79.4297 73.6758L75.3316 75.979L74.404 76.3333L73.2445 76.5327L71.1573 77.0863L65.1279 76.5991L65.3528 77.9278C60.2837 78.7251 57.3978 78.4593 52.4693 77.2192L52.2444 77.9278L49.5646 76.5991L48.9462 77.2192L46.9879 75.8018L46.3695 77.2192L44.102 75.8018V76.5991L42.8652 75.8018L42.1437 76.5991L40.2885 75.8018L39.3609 76.5991L37.1965 75.8018L36.5781 76.5991L35.1351 75.8018L34.5167 76.5991L33.5891 75.8018L32.5584 76.5991C31.0086 75.8851 30.3764 75.0587 29.9817 72.2585C30.1418 73.1283 29.9691 72.275 29.6725 68.8923C29.3759 65.5096 29.5493 67.0515 29.6725 64.9061C29.7958 62.7607 30.4602 61.6153 31.8369 59.5911H28.7449L29.9817 57.7308L28.0234 57.2879L29.6725 55.6048L28.7449 54.4532L29.6725 53.5674L28.0234 52.2386L31.2185 51.3528L30.6001 48.7839Z" fill="#FFEBC8"/>
<path fill-rule="evenodd" clip-rule="evenodd" d="M80.4342 3.61279L85.5267 9.73L81.7902 15.1864L86.2072 19.972H83.8767C84.161 20.3478 84.4353 20.6984 84.6946 21.0296L84.7219 21.0644C85.1847 21.6554 85.6113 22.2003 85.939 22.6981C86.601 23.704 87.013 24.7493 86.285 25.8279C85.73 26.65 84.8919 27.4693 84.2205 28.0657C83.8799 28.3681 83.5724 28.6219 83.3495 28.8004C83.3134 28.8294 83.2794 28.8564 83.2479 28.8813V31.5634C83.2492 31.5772 83.2519 31.6023 83.2569 31.6446C83.2694 31.7492 83.2949 31.949 83.3472 32.3228C83.4515 33.0699 83.6608 34.5025 84.0801 37.2402C84.2807 38.55 84.8473 40.3677 85.569 42.4878C85.7956 43.1533 86.0369 43.8474 86.2848 44.5603C86.8184 46.0945 87.3824 47.7164 87.8951 49.3308C88.647 51.6985 89.3021 54.0905 89.6067 56.2415C89.9085 58.3726 89.8821 60.3639 89.1717 61.8745C87.4656 65.5023 86.9876 66.1085 86.3073 66.9712C85.9707 67.398 85.5845 67.8877 84.9755 68.8374C84.5389 69.5184 84.191 70.0893 83.8859 70.59C82.873 72.2523 82.3313 73.1414 80.5751 74.7184L80.5161 74.7714L76.3629 77.1382L75.317 77.5433L74.1318 77.7498L71.971 78.331L66.8563 77.912L67.0436 79.0344L66.3195 79.1499C63.7847 79.5542 61.7613 79.6943 59.7398 79.5677C57.9322 79.4544 56.1537 79.1294 54.0438 78.6141L53.7656 79.503L50.8212 78.0226L50.1328 78.7225L48.4549 77.4912L47.8739 78.8412L46.0448 77.6819V78.5011L44.2068 77.2998L43.5736 78.0094L41.6812 77.1848L40.7925 77.9593L38.7723 77.2048L38.0999 78.0839L36.6807 77.2888L35.9724 78.2147L34.9137 77.2921L34.0397 77.9776L33.5669 77.7567C32.7203 77.3613 32.0485 76.8956 31.5608 76.0994C31.0965 75.3412 30.8317 74.3339 30.6354 72.9216L30.6612 72.9184C30.6577 72.8877 30.6539 72.8545 30.6499 72.8184C30.5902 72.2884 30.4742 71.2272 30.3279 69.5346C30.1844 67.8756 30.1469 67.3562 30.1723 66.9937C30.181 66.8691 30.1992 66.7479 30.2172 66.6285C30.2247 66.5788 30.2322 66.5294 30.2388 66.4803C30.2649 66.2885 30.297 65.9989 30.3266 65.4764C30.4345 63.5732 30.9514 62.3857 31.9036 60.8741H28.8612L30.2367 58.7763L28.1059 58.2877L30.1292 56.1938L29.2054 55.0309L30.0212 54.241L28 52.5896L31.7233 51.543L30.9211 48.1642L39.3315 52.1343C39.4065 52.1052 39.4923 52.0722 39.5877 52.0357C39.9641 51.8919 40.4914 51.6948 41.0957 51.4812C42.2944 51.0575 43.8324 50.5562 45.1001 50.2864C45.6736 50.1643 46.4037 50.0446 46.9794 49.9566C47.2696 49.9123 47.5249 49.8753 47.7078 49.8494C47.7993 49.8365 47.8728 49.8263 47.9237 49.8193L47.9823 49.8113L47.9978 49.8092L48.003 49.8085C48.0031 49.8085 48.0035 49.8084 48.1196 50.4661L48.003 49.8085L48.0187 49.8064L54.3722 49.1813L61.9534 49.3652V47.2579L61.0411 47.8763V40.9089H60.3015L59.6256 34.9198L59.625 34.9142L58.8024 26.939L60.9846 19.4186L57.5242 14.5937L56.7695 10.0835L58.5189 4.10257L61.0602 7.05549L63.7488 13.164H65.2862L67.9836 8.46253L68.604 11.0575L70.722 8.70836L71.3187 10.3984L75.5234 9.03738L74.8983 10.944L76.9629 10.3443V11.3088H78.8074L80.4342 3.61279ZM75.4358 12.1907L72.6345 13.0044L73.2259 11.2007L70.3346 12.1366L70.1204 11.5297L67.778 14.1277L67.3847 12.4823L66.23 14.4948H62.6989L59.7107 7.70545L59.2109 7.12471L58.3247 10.1546L58.9891 14.1252L62.6247 19.1946L60.3466 27.0456L61.1454 34.7895L61.146 34.7951L61.6858 39.5781H62.5682V45.1552L63.4806 44.5368V50.7336L54.4369 50.5142L48.2209 51.1258L48.2172 51.1263L48.1615 51.1339C48.1371 51.1373 48.107 51.1414 48.072 51.1463C48.037 51.1512 47.997 51.1568 47.9525 51.1631C47.7745 51.1883 47.5257 51.2243 47.2432 51.2674C46.6737 51.3545 45.9846 51.4681 45.4623 51.5793C44.3084 51.8248 42.8559 52.2952 41.6696 52.7145C41.0814 52.9224 40.5675 53.1145 40.2009 53.2546C40.0177 53.3246 39.8715 53.3815 39.7716 53.4207C39.7216 53.4403 39.6832 53.4555 39.6575 53.4657L39.6286 53.4772L39.62 53.4806L39.2726 53.62L33.0821 50.6978L33.4964 52.4429L30.9347 53.163L32.1573 54.162L31.1485 55.1388L32.0493 56.2728L30.8288 57.5359L32.5501 57.9307L31.4927 59.5433H34.5489L33.8773 60.5445C32.5422 62.5348 31.9639 63.5644 31.8519 65.542C31.8209 66.0893 31.7862 66.4098 31.7554 66.6369C31.7421 66.7345 31.7316 66.803 31.7232 66.8577C31.71 66.944 31.702 66.9961 31.6966 67.0746C31.6793 67.3215 31.7024 67.72 31.8507 69.4345C31.996 71.1154 32.1109 72.1664 32.1697 72.6884C32.1759 72.7435 32.1816 72.7935 32.1866 72.838C32.1934 72.8978 32.199 72.9476 32.2033 72.9862C32.207 73.0198 32.2102 73.0492 32.2124 73.072C32.2134 73.0828 32.2146 73.0968 32.2155 73.1108C32.216 73.1175 32.2166 73.1292 32.2169 73.1431C32.2169 73.1439 32.2176 73.1634 32.2158 73.1921C32.3966 74.3129 32.6188 75.0004 32.9081 75.4727C33.1349 75.8432 33.4184 76.1061 33.8339 76.3486L34.969 75.4582L35.735 76.1258L36.2431 75.4616L37.6623 76.2566L38.2063 75.5455L40.4438 76.3812L41.3797 75.5655L43.1367 76.3311L43.9227 75.4505L44.5176 75.8394V75.0684L47.1488 76.7361L47.7843 75.2592L49.9585 76.8548L50.4865 76.3179L52.8134 77.4878L52.9787 76.9596L53.7252 77.15C56.127 77.7628 57.989 78.1237 59.8493 78.2402C61.518 78.3448 63.2131 78.2544 65.3196 77.951L65.0655 76.4285L71.8111 76.9812L73.7559 76.4582L74.8515 76.2672L75.6302 75.9656L79.5378 73.7388C81.0868 72.3399 81.5268 71.6185 82.4936 70.0337C82.8041 69.5246 83.169 68.9265 83.6424 68.1882C84.3371 67.1049 84.7426 66.5951 85.0793 66.1716C85.7182 65.3684 86.1097 64.8762 87.7587 61.3698C88.3154 60.186 88.3847 58.478 88.0911 56.4045C87.8003 54.3511 87.1688 52.0334 86.4233 49.6858C85.9155 48.0868 85.3611 46.4926 84.8303 44.9665C84.5809 44.2492 84.3366 43.547 84.1049 42.8663C83.3879 40.7598 82.7852 38.845 82.5664 37.4163C82.1468 34.6768 81.9366 33.2383 81.8312 32.4836C81.7785 32.1065 81.7517 31.8977 81.7379 31.7815C81.731 31.7235 81.7271 31.6861 81.7248 31.6609C81.7236 31.6483 81.7227 31.6369 81.7221 31.6265C81.7218 31.6212 81.7214 31.6154 81.7212 31.6092L81.7209 31.5988L81.7208 31.5928L81.7208 31.5895L81.7208 31.5878C81.7207 31.5869 81.7207 31.586 82.4843 31.586H81.7207V28.2764L81.9872 28.0773L81.9879 28.0768L81.9914 28.0742L82.0072 28.0623C82.0215 28.0514 82.0433 28.0348 82.0718 28.0128C82.1287 27.9689 82.2122 27.9038 82.3161 27.8206C82.524 27.654 82.812 27.4164 83.1304 27.1336C83.7768 26.5594 84.5099 25.8328 84.9687 25.1531C85.2544 24.7298 85.2163 24.275 84.6143 23.3602C84.3165 22.9079 83.9184 22.3994 83.4344 21.7812L83.4332 21.7797C82.9546 21.1685 82.405 20.4659 81.8336 19.6547L81.1196 18.6411H83.019L79.9345 15.2993L83.6995 9.80138L81.2906 6.90776L80.0789 12.6397H75.4358V12.1907ZM32.0551 72.7488C32.016 72.7046 31.8824 72.5658 31.6385 72.5126C31.5168 72.4949 31.2678 72.5125 31.1473 72.5483C31.0525 72.5915 30.9072 72.6927 30.8548 72.7445C30.8002 72.8046 30.7661 72.8638 30.7454 72.9082L32.0551 72.7488Z" fill="black"/>
<path d="M84.9456 25.7962C84.4163 26.6619 84.7897 25.9826 84.6039 26.2374C84.4181 26.4921 84.4163 26.4833 83.4936 26.4833C82.6449 26.4833 82.3257 25.623 82.6449 25.128C83.3509 24.4687 83.7554 24.815 84.4331 24.815C85.1166 25.128 84.7748 24.6996 84.9456 25.7962Z" fill="black"/>
<path fill-rule="evenodd" clip-rule="evenodd" d="M83.4522 26.4827C82.6346 26.4552 82.3309 25.6149 82.6449 25.128C83.1605 24.6465 83.5153 24.7014 83.9331 24.766C84.0874 24.7898 84.2503 24.815 84.4331 24.815C84.7318 24.9518 84.8347 24.947 84.8701 24.9898C84.8705 24.9903 84.8709 24.9908 84.8713 24.9913C84.8841 25.0078 84.8875 25.0314 84.8884 25.0722C84.8905 25.1696 84.8785 25.365 84.9456 25.7962C84.6217 26.326 84.6358 26.2771 84.653 26.2179C84.6639 26.1803 84.676 26.1385 84.6039 26.2374C84.4243 26.4836 84.4166 26.4836 83.5826 26.4834C83.5539 26.4834 83.5242 26.4833 83.4936 26.4833C83.4904 26.4833 83.4873 26.4833 83.4842 26.4833C83.4734 26.4832 83.4627 26.483 83.4522 26.4827Z" fill="black"/>
<path d="M78.8523 26.181C78.8523 26.181 81.4668 27.9715 83.5944 26.8874C84.6688 26.34 82.5201 27.5515 81.9867 28.9401C81.7929 29.4447 81.5989 29.6588 80.9435 29.7925C80.4544 29.8026 79.0594 28.4687 78.8523 28.2119C78.2337 27.3289 78.8523 25.2097 78.8523 26.181Z" fill="#FFBDBD" fill-opacity="0.9"/>
<path d="M76.4696 20.7657C76.4696 21.4944 74.0031 22.0852 72.7262 22.0852C71.4492 22.0852 70.4141 21.4944 70.4141 20.7657C70.4141 20.037 71.4492 19.4463 72.7262 19.4463C74.0031 19.4463 76.4696 20.037 76.4696 20.7657Z" fill="black"/>
<path d="M83.9387 20.8179C84.7243 21.7684 85.7361 22.0852 83.9387 22.0852C82.1413 22.0852 81.0305 21.7696 80.5768 20.8179C79.6837 20.0799 80.0091 19.4463 81.8065 19.4463C83.6039 19.4463 83.9387 19.7681 83.9387 20.8179Z" fill="black"/>
<path d="M72.8363 20.7657C72.8363 21.4944 72.294 22.0852 71.6252 22.0852C70.9563 22.0852 70.4141 21.4944 70.4141 20.7657C70.4141 20.037 70.9563 19.4463 71.6252 19.4463C72.294 19.4463 72.8363 20.037 72.8363 20.7657Z" fill="#FCFCFC"/>
<path d="M72.8363 20.7657C72.8363 21.4944 72.294 22.0852 71.6252 22.0852C70.9563 22.0852 70.4141 21.4944 70.4141 20.7657C70.4141 20.037 70.9563 19.4463 71.6252 19.4463C72.294 19.4463 72.8363 20.037 72.8363 20.7657Z" fill="#FCFCFC"/>
<path d="M72.8363 20.7657C72.8363 21.4944 72.294 22.0852 71.6252 22.0852C70.9563 22.0852 70.4141 21.4944 70.4141 20.7657C70.4141 20.037 70.9563 19.4463 71.6252 19.4463C72.294 19.4463 72.8363 20.037 72.8363 20.7657Z" fill="#FCFCFC"/>
<path d="M72.8363 20.7657C72.8363 21.4944 72.294 22.0852 71.6252 22.0852C70.9563 22.0852 70.4141 21.4944 70.4141 20.7657C70.4141 20.037 70.9563 19.4463 71.6252 19.4463C72.294 19.4463 72.8363 20.037 72.8363 20.7657Z" fill="#FCFCFC"/>
<path d="M82.5197 20.3259C82.5197 20.8117 82.2486 21.2055 81.9141 21.2055C81.5797 21.2055 81.3086 20.8117 81.3086 20.3259C81.3086 19.8401 81.5797 19.4463 81.9141 19.4463C82.2486 19.4463 82.5197 19.8401 82.5197 20.3259Z" fill="#FCFCFC"/>
<path d="M82.5197 20.3259C82.5197 20.8117 82.2486 21.2055 81.9141 21.2055C81.5797 21.2055 81.3086 20.8117 81.3086 20.3259C81.3086 19.8401 81.5797 19.4463 81.9141 19.4463C82.2486 19.4463 82.5197 19.8401 82.5197 20.3259Z" fill="#FCFCFC"/>
<path d="M82.5197 20.3259C82.5197 20.8117 82.2486 21.2055 81.9141 21.2055C81.5797 21.2055 81.3086 20.8117 81.3086 20.3259C81.3086 19.8401 81.5797 19.4463 81.9141 19.4463C82.2486 19.4463 82.5197 19.8401 82.5197 20.3259Z" fill="#FCFCFC"/>
<path d="M82.5197 20.3259C82.5197 20.8117 82.2486 21.2055 81.9141 21.2055C81.5797 21.2055 81.3086 20.8117 81.3086 20.3259C81.3086 19.8401 81.5797 19.4463 81.9141 19.4463C82.2486 19.4463 82.5197 19.8401 82.5197 20.3259Z" fill="#FCFCFC"/>
<path fill-rule="evenodd" clip-rule="evenodd" d="M69.1152 16.8071L70.5272 18.0455L71.5167 16.9411L74.2172 18.2164L75.1186 17.2941L76.2091 18.038L76.6787 17.2694L77.7478 17.8528V16.8231L82.5257 18.4526L81.9295 19.624L79.2981 18.7265V20.2239L77.2799 19.1226L76.7204 20.0386L75.3411 19.0978L74.596 19.8602L71.9453 18.6085L70.6708 20.0311L69.2013 18.7425L66.7776 21.2053L65.5703 20.4092L69.1152 16.8071Z" fill="black"/>
<path fill-rule="evenodd" clip-rule="evenodd" d="M62.8514 20.0921L62.0029 18.5664L60.7227 19.2768L61.8184 21.2469L63.8318 22.0849L64.4723 20.8968L66.0575 21.7918L66.7782 20.5183L63.8916 18.8885L63.1711 20.2251L62.8514 20.0921Z" fill="black"/>
<path fill-rule="evenodd" clip-rule="evenodd" d="M79.6517 28.4642C79.7869 28.5369 80.015 28.6219 80.4503 28.7569C80.5439 28.7859 80.6727 28.7984 80.9238 28.6897C81.2018 28.5694 81.5436 28.3334 81.9598 27.9604C82.3688 27.5938 82.7956 27.1452 83.2595 26.6439C83.3496 26.5466 83.4412 26.4471 83.5341 26.3463C83.9093 25.939 84.3055 25.5088 84.7094 25.1011C85.2654 24.5399 85.2689 24.2238 85.2397 24.1181C85.2216 24.0526 85.1445 23.9069 84.8329 23.7487C84.4527 23.9387 84.0541 24.085 83.6861 24.211C83.5075 24.2722 83.3368 24.3285 83.171 24.3832C82.7843 24.5107 82.4242 24.6294 82.052 24.7809C81.0888 25.1729 80.2671 25.7019 79.7994 26.8198C79.6836 27.354 79.6107 27.7306 79.5818 28.0151C79.554 28.2878 79.5774 28.3943 79.5873 28.4246C79.5967 28.4317 79.6161 28.4451 79.6517 28.4642ZM78.796 26.5908C78.3037 28.8508 78.3813 29.0583 80.0979 29.5907C81.4717 30.0168 82.8526 28.5178 84.3524 26.8896C84.7266 26.4835 85.1081 26.0693 85.4988 25.6749C86.7985 24.3631 86.4499 23.2697 84.7333 22.7373C84.2262 23.0846 83.5538 23.3064 82.8357 23.5432C81.3136 24.0453 79.5865 24.6149 78.796 26.5908Z" fill="black"/>
<path fill-rule="evenodd" clip-rule="evenodd" d="M82.7613 26.1863L80.6895 24.6802L81.0244 24.3421L83.0963 25.8482L82.7613 26.1863Z" fill="black"/>
</svg>
