<svg width="107" height="92" viewBox="0 0 107 92" fill="none" xmlns="http://www.w3.org/2000/svg">
<path d="M9.20343 26.3913C10.5345 25.8777 11.7324 25.8157 12.7973 26.2051C13.8747 26.5897 14.6581 27.4165 15.1477 28.6853C15.5989 29.8546 15.566 30.9177 15.0491 31.8746C14.5399 32.8142 13.6595 33.5326 12.4079 34.0298L12.8546 35.4653L10.0557 36.5452L8.62329 33.1106L9.74284 32.6786C10.7007 32.309 11.3828 31.9101 11.7892 31.4817C12.208 31.0486 12.2974 30.521 12.0575 29.8991C11.8895 29.4637 11.6393 29.1672 11.307 29.0096C10.9746 28.852 10.597 28.8548 10.174 29.018C9.72621 29.1908 9.4283 29.4558 9.2803 29.813C9.1275 30.1578 9.1351 30.5479 9.30309 30.9832L6.29894 32.1423C5.98129 31.3931 5.8728 30.649 5.97349 29.9098C6.08661 29.1659 6.41185 28.4902 6.94919 27.8827C7.49418 27.258 8.24559 26.7609 9.20343 26.3913ZM13.3643 40.8422C12.8045 41.0582 12.2819 41.0741 11.7963 40.8899C11.3184 40.6884 10.9859 40.3451 10.7987 39.8599C10.6067 39.3623 10.6201 38.8784 10.8388 38.4082C11.07 37.9331 11.4654 37.5876 12.0252 37.3716C12.5725 37.1604 13.0852 37.1556 13.563 37.3571C14.0534 37.5537 14.3945 37.9009 14.5865 38.3984C14.7737 38.8836 14.7517 39.3637 14.5206 39.8387C14.2971 40.2966 13.9116 40.6311 13.3643 40.8422ZM18.744 19.5332C20.3412 18.9169 21.7788 18.8425 23.0567 19.3098C24.3495 19.7714 25.2897 20.7634 25.8771 22.286C26.4185 23.6892 26.3791 24.9649 25.7589 26.1132C25.1478 27.2407 24.0913 28.1028 22.5894 28.6995L23.1254 30.422L19.7667 31.7179L18.0478 27.5963L19.3913 27.078C20.5407 26.6345 21.3593 26.1558 21.8469 25.6417C22.3495 25.122 22.4568 24.4889 22.1688 23.7425C21.9673 23.2201 21.6671 22.8643 21.2682 22.6752C20.8694 22.4861 20.4163 22.4894 19.9087 22.6852C19.3713 22.8926 19.0139 23.2106 18.8363 23.6393C18.6529 24.053 18.662 24.5211 18.8636 25.0436L15.2586 26.4345C14.8774 25.5354 14.7473 24.6424 14.8681 23.7555C15.0038 22.8628 15.3941 22.0519 16.0389 21.3229C16.6929 20.5733 17.5946 19.9767 18.744 19.5332ZM23.737 36.8744C23.0653 37.1335 22.4381 37.1526 21.8555 36.9315C21.282 36.6897 20.883 36.2777 20.6583 35.6956C20.4279 35.0985 20.444 34.5178 20.7064 33.9535C20.9838 33.3834 21.4584 32.9688 22.1301 32.7096C22.7869 32.4562 23.4021 32.4504 23.9755 32.6921C24.564 32.9281 24.9733 33.3447 25.2037 33.9418C25.4283 34.524 25.402 35.1001 25.1246 35.6702C24.8564 36.2195 24.3938 36.6209 23.737 36.8744ZM30.2774 15.0832C31.8746 14.4669 33.3122 14.3925 34.59 14.8598C35.8829 15.3214 36.823 16.3134 37.4105 17.836C37.9519 19.2392 37.9125 20.5149 37.2922 21.6632C36.6811 22.7907 35.6246 23.6528 34.1227 24.2495L34.6587 25.972L31.3001 27.2679L29.5812 23.1463L30.9247 22.628C32.0741 22.1845 32.8926 21.7058 33.3803 21.1918C33.8829 20.672 33.9902 20.0389 33.7022 19.2926C33.5006 18.7701 33.2004 18.4143 32.8016 18.2252C32.4028 18.0361 31.9496 18.0394 31.4421 18.2353C30.9047 18.4426 30.5472 18.7606 30.3696 19.1893C30.1862 19.603 30.1954 20.0711 30.3969 20.5936L26.792 21.9845C26.4108 21.0854 26.2806 20.1924 26.4014 19.3055C26.5372 18.4128 26.9275 17.6019 27.5723 16.873C28.2263 16.1233 29.1279 15.5267 30.2774 15.0832ZM35.2704 32.4244C34.5987 32.6835 33.9715 32.7026 33.3888 32.4815C32.8154 32.2397 32.4163 31.8278 32.1917 31.2456C31.9613 30.6485 31.9773 30.0678 32.2398 29.5035C32.5172 28.9334 32.9917 28.5188 33.6635 28.2596C34.3203 28.0062 34.9354 28.0004 35.5089 28.2421C36.0973 28.4782 36.5067 28.8947 36.7371 29.4918C36.9617 30.074 36.9353 30.6501 36.6579 31.2202C36.3897 31.7695 35.9272 32.1709 35.2704 32.4244Z" fill="black"/>
<path d="M101.199 75.8151V69.5114L91.9477 68.1484L92.9159 75.8151L94.5295 77.4336L96.7886 88.5929H100.016L101.199 87.5707L100.016 77.7744L101.199 75.8151Z" fill="#E5C080"/>
<path fill-rule="evenodd" clip-rule="evenodd" d="M90.7913 67.2964L91.8308 76.1101L93.3718 77.7652L95.5799 89.4445H99.6221L101.199 87.9857L100.068 77.958L101.17 76.0039V68.9337L90.7913 67.2964ZM99.6377 70.0136V75.7092L98.502 77.7228L99.6087 87.5338L98.9479 88.1451H96.8863L94.8219 77.2255L93.3111 75.603L92.5195 68.8907L99.6377 70.0136Z" fill="black"/>
<path fill-rule="evenodd" clip-rule="evenodd" d="M59.5659 69.2518L61.601 78.3091L62.9368 79.4748V89.3577L64.1433 90.1098H67.7627L68.706 80.0483L69.8127 77.5901V70.7766H68.3129V77.3423L67.2293 79.7493L66.3806 88.801H64.6239L64.4366 88.6842V78.9327L62.9848 77.6658L61.0377 69L59.5659 69.2518ZM87.3203 71.2517L85.8493 70.9965L82.5922 85.2943L81.3998 86.8897H80.1666V84.2264L82.1096 76.4625L80.1666 73.9638V72.0798L78.6705 72.0147L77.7987 79.6226L76.9878 80.4187L76.4854 89.6258L75.9188 90.5596L74.4587 90.3557L73.6954 87.4695V80.5138L72.4884 78.5828L72.0014 72.0374L70.5047 72.1222L71.0132 78.9559L72.1956 80.8476V87.6186L73.2244 91.5089L76.742 92L77.9675 89.9799L78.4607 80.9427L79.2427 80.175L79.7489 75.7575L80.5069 76.7323L78.6668 84.0852V88.1985H82.2123L84.0067 85.7974L87.3203 71.2517Z" fill="black"/>
<path d="M87.3203 71.7724L83.9956 85.6359L82.4843 87.5567H80.0663V84.2996L81.9806 77.0338L80.0663 74.6954V72.6911L79.1596 80.2074L78.3536 80.959L77.8498 89.7281L76.9431 91.1479L74.4243 90.8138L73.5176 87.5567V80.959L72.3086 79.1217L71.8048 72.6911L69.5883 71.4383V77.869L68.4801 80.2074L67.5733 89.394H64.8531L64.1478 88.9765V79.5393L62.7373 78.3701L60.7223 69.8516L87.3203 71.7724Z" fill="#E5C080"/>
<path fill-rule="evenodd" clip-rule="evenodd" d="M59.5659 69L61.7646 78.6581L63.0836 79.794V89.4251L64.2748 90.1579H67.8485L68.78 80.3529L69.8726 77.9574V72.5241L70.5793 72.9391L71.058 79.2884L72.2255 81.1318V87.7302L73.2412 91.5214L76.7145 92L77.9245 90.0314L78.4115 81.2245L79.1836 80.4764L79.6834 76.1714L80.4319 77.1214L78.615 84.2869V88.2953H82.1157L83.8874 85.9555L87.3203 71.0826L59.5659 69ZM80.0958 74.4234V72.5874L78.6186 72.524L77.7578 79.938L76.9571 80.7138L76.4611 89.6863L75.9017 90.5963L74.4599 90.3976L73.7063 87.585V80.8066L72.5146 78.9248L72.0103 72.2357L70.0156 71.0644L85.5457 72.2297L82.4908 85.4652L81.3135 87.0199H80.0958V84.4245L82.0143 76.8585L80.0958 74.4234ZM68.3918 70.9425V77.7158L67.3218 80.0615L66.4839 88.8825H64.7494L64.5644 88.7687V79.2657L63.131 78.0311L61.3977 70.4177L68.3918 70.9425Z" fill="black"/>
<path fill-rule="evenodd" clip-rule="evenodd" d="M91.9477 69.9959L92.7093 76.2927L94.1928 77.8038L96.1415 89.4442H99.7147L101.199 88.1955L100.166 78.0227L101.169 76.6521V69.9237H99.7665V76.2537L98.7215 77.6802L99.7367 87.6713L99.1723 88.146H97.3439L95.5147 77.2196L94.0531 75.7308L93.3421 69.8516L91.9477 69.9959Z" fill="black"/>
<path d="M104.516 43.7446L97.4303 47.0902C97.4303 47.0902 93.9747 45.7034 91.6237 45.2029C90.5599 44.9765 88.8681 44.7497 88.8681 44.7497L82.7663 44.1492L74.6963 44.3451V40.3131L75.582 40.9136V34.8228H76.3693L76.9598 29.5899L77.7471 21.9549L75.582 14.4915L79.0265 9.68752L79.7154 5.56979L78.436 1.19471L76.9598 2.91043L75.582 6.04162L74.2042 9.17281H71.7438L69.8739 5.91294L69.3818 7.9718L67.2167 5.56979L66.823 6.68501L63.3785 5.56979L63.969 7.3713L61.607 6.68501V7.3713H58.4577L57.0799 0.851562L53.4385 5.22665L57.0799 10.5454L53.4385 14.4915H55.5052C53.3281 17.583 51.4702 19.0382 52.4543 20.4966C53.4385 21.9549 55.5052 23.4991 55.5052 23.4991V26.4158C55.5052 26.4158 55.5052 26.6732 54.6908 31.9919C53.8763 37.3106 47.2383 50.3501 49.6987 55.583C52.1591 60.816 51.8638 59.3576 53.7337 62.2744C55.6036 65.1911 55.7605 65.9371 57.8907 67.8504L61.8038 70.0809L62.6896 70.424L63.7967 70.6171L65.7896 71.1532L71.547 70.6814L71.3322 71.9682C76.1725 72.7403 78.9281 72.4829 83.6342 71.2819L83.8489 71.9682L86.4077 70.6814L86.9982 71.2819L88.8681 69.9093L89.4586 71.2819L91.6237 69.9093V70.6814L92.8047 69.9093L93.4936 70.6814L95.2651 69.9093L96.1509 70.6814L98.2176 69.9093L98.8081 70.6814L100.186 69.9093L100.776 70.6814L101.662 69.9093L102.646 70.6814C104.126 69.99 104.73 69.1896 105.107 66.4779C104.954 67.3203 105.119 66.4939 105.402 63.218C105.685 59.9421 105.52 61.4353 105.402 59.3576C105.284 57.28 104.65 56.1708 103.335 54.2105H106.288L105.107 52.409L106.977 51.98L105.402 50.3501L106.288 49.2349L105.402 48.377L106.977 47.0902L103.926 46.2324L104.516 43.7446Z" fill="#FFEBC8"/>
<path fill-rule="evenodd" clip-rule="evenodd" d="M56.9326 0L52.0699 5.92403L55.6378 11.2082L51.4202 15.8426H53.6455C53.374 16.2065 53.1121 16.5461 52.8645 16.8668L52.8385 16.9005C52.3965 17.4729 51.9891 18.0005 51.6763 18.4826C51.0442 19.4567 50.6508 20.469 51.3459 21.5135C51.8758 22.3097 52.6761 23.1031 53.3172 23.6807C53.6424 23.9736 53.9361 24.2194 54.1489 24.3922C54.1834 24.4203 54.2158 24.4464 54.2459 24.4705V27.0679C54.2446 27.0813 54.2421 27.1056 54.2373 27.1466C54.2254 27.2479 54.201 27.4414 54.1511 27.8034C54.0515 28.5269 53.8517 29.9142 53.4513 32.5655C53.2597 33.834 52.7187 35.5942 52.0296 37.6474C51.8132 38.2919 51.5828 38.964 51.346 39.6545C50.8366 41.1402 50.298 42.7109 49.8085 44.2743C49.0906 46.5672 48.465 48.8836 48.1741 50.9668C47.886 53.0305 47.9111 54.959 48.5895 56.4219C50.2185 59.9351 50.675 60.5222 51.3246 61.3576C51.646 61.771 52.0148 62.2452 52.5962 63.1649C53.0132 63.8244 53.3454 64.3772 53.6367 64.8621C54.6039 66.472 55.1212 67.3329 56.798 68.8602L56.8544 68.9115L60.8201 71.2035L61.8188 71.5958L62.9505 71.7959L65.0138 72.3587L69.8977 71.9529L69.7188 73.0399L70.4102 73.1517C72.8306 73.5432 74.7626 73.679 76.6929 73.5563C78.4189 73.4466 80.1171 73.1319 82.1318 72.6329L82.3974 73.4936L85.2089 72.06L85.8663 72.7379L87.4684 71.5454L88.0232 72.8528L89.7698 71.7301V72.5234L91.5247 71.3601L92.1294 72.0472L93.9363 71.2487L94.7849 71.9988L96.7139 71.2681L97.356 72.1194L98.7111 71.3494L99.3875 72.2461L100.398 71.3526L101.233 72.0164L101.684 71.8026C102.493 71.4196 103.134 70.9686 103.6 70.1976C104.043 69.4633 104.296 68.4878 104.484 67.1201L104.459 67.117C104.462 67.0873 104.466 67.0551 104.47 67.0202C104.527 66.5069 104.637 65.4792 104.777 63.84C104.914 62.2335 104.95 61.7304 104.926 61.3794C104.917 61.2587 104.9 61.1414 104.883 61.0257C104.876 60.9776 104.869 60.9298 104.862 60.8822C104.837 60.6965 104.807 60.416 104.778 59.91C104.675 58.0669 104.182 56.917 103.273 55.4531H106.178L104.864 53.4215L106.899 52.9483L104.967 50.9206L105.849 49.7944L105.07 49.0294L107 47.4302L103.445 46.4166L104.211 43.1445L96.18 46.9892C96.1084 46.9611 96.0265 46.9291 95.9354 46.8938C95.5759 46.7545 95.0724 46.5636 94.4954 46.3568C93.3508 45.9465 91.8822 45.461 90.6718 45.1997C90.1242 45.0815 89.427 44.9655 88.8773 44.8803C88.6002 44.8374 88.3564 44.8016 88.1818 44.7765C88.0944 44.764 88.0242 44.7541 87.9757 44.7474L87.9196 44.7396L87.9048 44.7376L87.8999 44.7369C87.8998 44.7369 87.8994 44.7368 87.7886 45.3737L87.8999 44.7369L87.8849 44.7349L81.8182 44.1295L74.5792 44.3076V42.2669L75.4503 42.8657V36.1184H76.1565L76.802 30.3184L76.8025 30.313L77.588 22.5896L75.5043 15.3067L78.8085 10.6341L79.5291 6.26639L77.8587 0.474309L75.4321 3.33398L72.8649 9.24957H71.3968L68.8212 4.69658L68.2288 7.20963L66.2064 4.93466L65.6366 6.57131L61.6217 5.25328L62.2186 7.09971L60.2472 6.51891V7.45298H58.4859L56.9326 0ZM61.7054 8.30705L64.3802 9.09507L63.8155 7.34832L66.5763 8.25464L66.7809 7.66695L69.0175 10.1829L69.3931 8.58943L70.4956 10.5384H73.8673L76.7207 3.96342L77.1979 3.40102L78.0441 6.33521L77.4097 10.1804L73.9382 15.0897L76.1134 22.6928L75.3508 30.1922L75.3502 30.1976L74.8347 34.8295H73.9921V40.2305L73.121 39.6317V45.6328L81.7564 45.4203L87.6919 46.0126L87.6954 46.0131L87.7486 46.0205C87.7719 46.0237 87.8006 46.0277 87.8341 46.0325C87.8675 46.0372 87.9057 46.0426 87.9481 46.0487C88.1181 46.0731 88.3557 46.108 88.6254 46.1498C89.1692 46.2341 89.8272 46.3441 90.3259 46.4517C91.4278 46.6896 92.8147 47.1451 93.9474 47.5511C94.5091 47.7524 94.9998 47.9385 95.3499 48.0741C95.5248 48.1419 95.6643 48.197 95.7598 48.235C95.8075 48.254 95.8442 48.2687 95.8687 48.2786L95.8963 48.2897L95.9045 48.2931L96.2362 48.4281L102.147 45.5981L101.752 47.2881L104.198 47.9855L103.03 48.9529L103.994 49.8989L103.133 50.9971L104.299 52.2203L102.655 52.6026L103.665 54.1642H100.747L101.388 55.1339C102.663 57.0613 103.215 58.0584 103.322 59.9735C103.352 60.5035 103.385 60.8139 103.414 61.0338C103.427 61.1284 103.437 61.1947 103.445 61.2477C103.457 61.3312 103.465 61.3818 103.47 61.4578C103.487 61.6969 103.465 62.0828 103.323 63.7432C103.184 65.3709 103.075 66.3887 103.019 66.8943C103.013 66.9476 103.007 66.9961 103.002 67.0391C102.996 67.0971 102.99 67.1453 102.986 67.1827C102.983 67.2152 102.98 67.2437 102.978 67.2657C102.977 67.2762 102.976 67.2897 102.975 67.3033C102.974 67.3098 102.974 67.3211 102.973 67.3346C102.973 67.3354 102.973 67.3543 102.974 67.3821C102.802 68.4675 102.59 69.1333 102.313 69.5907C102.097 69.9494 101.826 70.2041 101.429 70.4389L100.346 69.5766L99.6141 70.2231L99.1289 69.5799L97.7738 70.3498L97.2544 69.6612L95.1179 70.4704L94.2242 69.6805L92.5465 70.422L91.7961 69.5692L91.228 69.9458V69.1992L88.7156 70.8141L88.1087 69.3839L86.0327 70.9291L85.5285 70.4092L83.3067 71.5421L83.1488 71.0305L82.436 71.215C80.1426 71.8085 78.3647 72.1579 76.5884 72.2708C74.995 72.372 73.3764 72.2845 71.365 71.9907L71.6076 70.5163L65.1664 71.0515L63.3095 70.545L62.2633 70.3601L61.5198 70.068L57.7885 67.9115C56.3095 66.5567 55.8893 65.8581 54.9662 64.3234C54.6696 63.8304 54.3212 63.2512 53.8692 62.5362C53.2059 61.4871 52.8187 60.9933 52.4971 60.5833C51.8871 59.8054 51.5133 59.3288 49.9387 55.9331C49.4071 54.7866 49.341 53.1326 49.6213 51.1246C49.899 49.1361 50.502 46.8915 51.2139 44.6181C51.6987 43.0696 52.2281 41.5257 52.7349 40.0478C52.9731 39.3532 53.2063 38.6731 53.4276 38.0139C54.1122 35.9739 54.6877 34.1196 54.8967 32.736C55.2973 30.0831 55.498 28.69 55.5986 27.9591C55.6489 27.5939 55.6746 27.3917 55.6877 27.2792C55.6943 27.223 55.6981 27.1868 55.7003 27.1624C55.7014 27.1501 55.7022 27.1392 55.7028 27.1291C55.7032 27.124 55.7035 27.1183 55.7037 27.1123L55.704 27.1022L55.7041 27.0964L55.7041 27.0932L55.7041 27.0916C55.7041 27.0907 55.7041 27.0899 54.975 27.0899H55.7041V23.8847L55.4497 23.692L55.449 23.6915L55.4457 23.6889L55.4306 23.6774C55.4169 23.6669 55.3961 23.6508 55.3689 23.6295C55.3146 23.587 55.2348 23.5239 55.1357 23.4433C54.9371 23.282 54.6621 23.0519 54.3581 22.7781C53.7409 22.222 53.0409 21.5183 52.6028 20.8601C52.33 20.4502 52.3663 20.0097 52.9412 19.1238C53.2255 18.6858 53.6057 18.1933 54.0679 17.5947L54.069 17.5933C54.526 17.0013 55.0508 16.3209 55.5964 15.5353L56.2781 14.5538H54.4645L57.4097 11.3174L53.8147 5.99316L56.1149 3.19091L57.2718 8.7418H61.7054V8.30705ZM103.128 66.9528C103.165 66.91 103.293 66.7755 103.526 66.724C103.642 66.7069 103.88 66.7239 103.995 66.7586C104.085 66.8005 104.224 66.8984 104.274 66.9486C104.326 67.0068 104.359 67.0642 104.379 67.1071L103.128 66.9528Z" fill="black"/>
<path d="M52.6246 21.483C53.1301 22.3214 52.7736 21.6636 52.9509 21.9103C53.1283 22.157 53.1301 22.1485 54.0112 22.1485C54.8215 22.1485 55.1263 21.3153 54.8215 20.836C54.1474 20.1975 53.7612 20.5328 53.1141 20.5328C52.4614 20.836 52.7877 20.4211 52.6246 21.483Z" fill="black"/>
<path fill-rule="evenodd" clip-rule="evenodd" d="M54.0507 22.1478C54.8313 22.1212 55.1213 21.3075 54.8215 20.836C54.3292 20.3697 53.9904 20.4228 53.5914 20.4853C53.4441 20.5084 53.2886 20.5328 53.1141 20.5328C52.8288 20.6653 52.7306 20.6606 52.6967 20.7021C52.6963 20.7026 52.696 20.7031 52.6956 20.7036C52.6834 20.7196 52.6802 20.7424 52.6793 20.7819C52.6772 20.8763 52.6888 21.0655 52.6246 21.483C52.934 21.9961 52.9205 21.9488 52.9041 21.8914C52.8937 21.855 52.8821 21.8145 52.9509 21.9103C53.1224 22.1488 53.1298 22.1488 53.9262 22.1485C53.9536 22.1485 53.9819 22.1485 54.0112 22.1485C54.0142 22.1485 54.0172 22.1485 54.0201 22.1485C54.0304 22.1484 54.0406 22.1482 54.0507 22.1478Z" fill="black"/>
<path d="M58.4418 21.8554C58.4418 21.8554 55.9453 23.5894 53.9137 22.5395C52.8879 22.0094 54.9396 23.1827 55.4488 24.5273C55.6339 25.016 55.8192 25.2234 56.445 25.3529C56.912 25.3626 58.244 24.0709 58.4418 23.8222C59.0325 22.9671 58.4418 20.9148 58.4418 21.8554Z" fill="#FFBDBD" fill-opacity="0.9"/>
<path d="M60.7178 16.6113C60.7178 17.317 63.073 17.8891 64.2923 17.8891C65.5116 17.8891 66.5 17.317 66.5 16.6113C66.5 15.9056 65.5116 15.3335 64.2923 15.3335C63.073 15.3335 60.7178 15.9056 60.7178 16.6113Z" fill="black"/>
<path d="M53.5862 16.6618C52.8361 17.5823 51.8699 17.8891 53.5862 17.8891C55.3025 17.8891 56.3632 17.5834 56.7964 16.6618C57.6492 15.9471 57.3385 15.3335 55.6222 15.3335C53.9059 15.3335 53.5862 15.6452 53.5862 16.6618Z" fill="black"/>
<path d="M64.1871 16.6113C64.1871 17.317 64.7049 17.8891 65.3436 17.8891C65.9822 17.8891 66.5 17.317 66.5 16.6113C66.5 15.9056 65.9822 15.3335 65.3436 15.3335C64.7049 15.3335 64.1871 15.9056 64.1871 16.6113Z" fill="#FCFCFC"/>
<path d="M64.1871 16.6113C64.1871 17.317 64.7049 17.8891 65.3436 17.8891C65.9822 17.8891 66.5 17.317 66.5 16.6113C66.5 15.9056 65.9822 15.3335 65.3436 15.3335C64.7049 15.3335 64.1871 15.9056 64.1871 16.6113Z" fill="#FCFCFC"/>
<path d="M64.1871 16.6113C64.1871 17.317 64.7049 17.8891 65.3436 17.8891C65.9822 17.8891 66.5 17.317 66.5 16.6113C66.5 15.9056 65.9822 15.3335 65.3436 15.3335C64.7049 15.3335 64.1871 15.9056 64.1871 16.6113Z" fill="#FCFCFC"/>
<path d="M64.1871 16.6113C64.1871 17.317 64.7049 17.8891 65.3436 17.8891C65.9822 17.8891 66.5 17.317 66.5 16.6113C66.5 15.9056 65.9822 15.3335 65.3436 15.3335C64.7049 15.3335 64.1871 15.9056 64.1871 16.6113Z" fill="#FCFCFC"/>
<path d="M54.9412 16.1853C54.9412 16.6558 55.2001 17.0372 55.5194 17.0372C55.8388 17.0372 56.0977 16.6558 56.0977 16.1853C56.0977 15.7149 55.8388 15.3335 55.5194 15.3335C55.2001 15.3335 54.9412 15.7149 54.9412 16.1853Z" fill="#FCFCFC"/>
<path d="M54.9412 16.1853C54.9412 16.6558 55.2001 17.0372 55.5194 17.0372C55.8388 17.0372 56.0977 16.6558 56.0977 16.1853C56.0977 15.7149 55.8388 15.3335 55.5194 15.3335C55.2001 15.3335 54.9412 15.7149 54.9412 16.1853Z" fill="#FCFCFC"/>
<path d="M54.9412 16.1853C54.9412 16.6558 55.2001 17.0372 55.5194 17.0372C55.8388 17.0372 56.0977 16.6558 56.0977 16.1853C56.0977 15.7149 55.8388 15.3335 55.5194 15.3335C55.2001 15.3335 54.9412 15.7149 54.9412 16.1853Z" fill="#FCFCFC"/>
<path d="M54.9412 16.1853C54.9412 16.6558 55.2001 17.0372 55.5194 17.0372C55.8388 17.0372 56.0977 16.6558 56.0977 16.1853C56.0977 15.7149 55.8388 15.3335 55.5194 15.3335C55.2001 15.3335 54.9412 15.7149 54.9412 16.1853Z" fill="#FCFCFC"/>
<path fill-rule="evenodd" clip-rule="evenodd" d="M67.7401 12.7778L66.3918 13.9771L65.447 12.9076L62.8684 14.1426L62.0077 13.2495L60.9664 13.9699L60.5181 13.2255L59.4972 13.7904V12.7933L54.9349 14.3714L55.5043 15.5057L58.0169 14.6366V16.0867L59.9439 15.0202L60.4782 15.9073L61.7952 14.9962L62.5068 15.7345L65.0378 14.5223L66.2548 15.9L67.6579 14.652L69.9722 17.0371L71.125 16.2662L67.7401 12.7778Z" fill="black"/>
<path fill-rule="evenodd" clip-rule="evenodd" d="M73.7212 15.959L74.5315 14.4814L75.7539 15.1694L74.7077 17.0773L72.7851 17.8889L72.1735 16.7382L70.6598 17.605L69.9717 16.3717L72.728 14.7934L73.416 16.0878L73.7212 15.959Z" fill="black"/>
<path fill-rule="evenodd" clip-rule="evenodd" d="M57.6803 24.0668C57.5512 24.1372 57.3333 24.2194 56.9176 24.3502C56.8283 24.3783 56.7053 24.3904 56.4656 24.2852C56.2001 24.1686 55.8738 23.9401 55.4763 23.5789C55.0858 23.2239 54.6783 22.7894 54.2353 22.304C54.1492 22.2097 54.0618 22.1134 53.9731 22.0157C53.6148 21.6213 53.2365 21.2047 52.8508 20.8099C52.3199 20.2664 52.3166 19.9603 52.3445 19.858C52.3618 19.7945 52.4353 19.6533 52.7329 19.5001C53.0959 19.6842 53.4766 19.8259 53.8279 19.9479C53.9985 20.0071 54.1615 20.0617 54.3198 20.1146C54.689 20.2381 55.0329 20.3531 55.3883 20.4998C56.308 20.8794 57.0926 21.3917 57.5392 22.4743C57.6497 22.9917 57.7194 23.3563 57.747 23.6318C57.7735 23.8959 57.7512 23.9991 57.7417 24.0284C57.7328 24.0353 57.7142 24.0482 57.6803 24.0668ZM58.4973 22.2526C58.9674 24.4412 58.8933 24.6421 57.2542 25.1577C55.9424 25.5704 54.6238 24.1186 53.1917 22.5419C52.8344 22.1486 52.4701 21.7475 52.0971 21.3656C50.8561 20.0952 51.1889 19.0363 52.828 18.5207C53.3122 18.857 53.9543 19.0718 54.6399 19.3012C56.0934 19.7874 57.7425 20.3391 58.4973 22.2526Z" fill="black"/>
<path fill-rule="evenodd" clip-rule="evenodd" d="M54.7106 21.8609L56.6889 20.4023L56.3691 20.0749L54.3907 21.5335L54.7106 21.8609Z" fill="black"/>
</svg>
